<svg width="391" height="160" viewBox="0 0 391 160" fill="none" xmlns="http://www.w3.org/2000/svg">
<path d="M21.0288 58V2.48H28.5488V58H21.0288ZM56.8688 58V2.48H64.3888V58H56.8688ZM26.1488 32.72V25.84H58.7088V32.72H26.1488ZM80.3131 58V20H87.5131V58H80.3131ZM83.9131 12.4C82.5798 12.4 81.4865 11.9733 80.6331 11.12C79.7798 10.2133 79.3531 9.09333 79.3531 7.76C79.3531 6.48 79.7798 5.41333 80.6331 4.56C81.4865 3.65333 82.5798 3.2 83.9131 3.2C85.2465 3.2 86.3398 3.65333 87.1931 4.56C88.0465 5.41333 88.4731 6.48 88.4731 7.76C88.4731 9.09333 88.0465 10.2133 87.1931 11.12C86.3398 11.9733 85.2465 12.4 83.9131 12.4ZM102.124 58V20H109.324V58H102.124ZM127.804 58V35.04C127.804 32.2133 126.924 30 125.164 28.4C123.457 26.7467 121.297 25.92 118.684 25.92C116.924 25.92 115.35 26.2933 113.964 27.04C112.577 27.7867 111.457 28.8267 110.604 30.16C109.75 31.4933 109.324 33.0933 109.324 34.96L106.364 33.52C106.364 30.64 106.977 28.1333 108.204 26C109.484 23.8667 111.217 22.2133 113.404 21.04C115.59 19.8133 118.044 19.2 120.764 19.2C123.43 19.2 125.83 19.7867 127.964 20.96C130.15 22.1333 131.857 23.7867 133.084 25.92C134.364 28.0533 135.004 30.5867 135.004 33.52V58H127.804ZM153.484 58V35.04C153.484 32.2133 152.604 30 150.844 28.4C149.137 26.7467 147.004 25.92 144.444 25.92C142.684 25.92 141.084 26.2933 139.644 27.04C138.257 27.7867 137.137 28.8267 136.284 30.16C135.43 31.4933 135.004 33.0933 135.004 34.96L130.924 33.52C131.084 30.5867 131.857 28.08 133.244 26C134.684 23.8667 136.524 22.2133 138.764 21.04C141.004 19.8133 143.457 19.2 146.124 19.2C148.897 19.2 151.377 19.7867 153.564 20.96C155.75 22.1333 157.484 23.7867 158.764 25.92C160.097 28.0533 160.764 30.6133 160.764 33.6V58H153.484ZM190.721 58.8C187.255 58.8 184.108 57.9467 181.281 56.24C178.455 54.48 176.215 52.1067 174.561 49.12C172.961 46.1333 172.161 42.7733 172.161 39.04C172.161 35.3067 172.961 31.9467 174.561 28.96C176.215 25.9733 178.428 23.6 181.201 21.84C184.028 20.08 187.201 19.2 190.721 19.2C193.601 19.2 196.161 19.8133 198.401 21.04C200.695 22.2133 202.535 23.8667 203.921 26C205.308 28.08 206.081 30.5067 206.241 33.28V44.72C206.081 47.44 205.308 49.8667 203.921 52C202.588 54.1333 200.775 55.8133 198.481 57.04C196.241 58.2133 193.655 58.8 190.721 58.8ZM191.921 52C195.495 52 198.375 50.8 200.561 48.4C202.748 45.9467 203.841 42.8267 203.841 39.04C203.841 36.4267 203.335 34.16 202.321 32.24C201.361 30.2667 199.975 28.7467 198.161 27.68C196.348 26.56 194.241 26 191.841 26C189.441 26 187.308 26.56 185.441 27.68C183.628 28.8 182.188 30.3467 181.121 32.32C180.108 34.24 179.601 36.4533 179.601 38.96C179.601 41.52 180.108 43.7867 181.121 45.76C182.188 47.68 183.655 49.2 185.521 50.32C187.388 51.44 189.521 52 191.921 52ZM203.361 58V47.76L204.721 38.48L203.361 29.28V20H210.641V58H203.361ZM252.004 58V35.84C252.004 32.96 251.097 30.5867 249.284 28.72C247.47 26.8533 245.124 25.92 242.244 25.92C240.324 25.92 238.617 26.3467 237.124 27.2C235.63 28.0533 234.457 29.2267 233.604 30.72C232.75 32.2133 232.324 33.92 232.324 35.84L229.364 34.16C229.364 31.28 230.004 28.72 231.284 26.48C232.564 24.24 234.35 22.48 236.644 21.2C238.937 19.8667 241.524 19.2 244.404 19.2C247.284 19.2 249.817 19.92 252.004 21.36C254.244 22.8 256.004 24.6933 257.284 27.04C258.564 29.3333 259.204 31.7867 259.204 34.4V58H252.004ZM225.124 58V20H232.324V58H225.124ZM285.032 58.8C282.899 58.8 280.872 58.5333 278.952 58C277.085 57.4133 275.352 56.6133 273.752 55.6C272.152 54.5333 270.765 53.28 269.592 51.84L274.232 47.2C275.619 48.9067 277.219 50.1867 279.032 51.04C280.845 51.84 282.872 52.24 285.112 52.24C287.352 52.24 289.085 51.8667 290.312 51.12C291.539 50.32 292.152 49.2267 292.152 47.84C292.152 46.4533 291.645 45.3867 290.632 44.64C289.672 43.84 288.419 43.2 286.872 42.72C285.325 42.1867 283.672 41.68 281.912 41.2C280.205 40.6667 278.579 40 277.032 39.2C275.485 38.4 274.205 37.3067 273.192 35.92C272.232 34.5333 271.752 32.6933 271.752 30.4C271.752 28.1067 272.312 26.1333 273.432 24.48C274.552 22.7733 276.099 21.4667 278.072 20.56C280.099 19.6533 282.525 19.2 285.352 19.2C288.339 19.2 290.979 19.7333 293.272 20.8C295.619 21.8133 297.539 23.36 299.032 25.44L294.392 30.08C293.325 28.6933 291.992 27.6267 290.392 26.88C288.845 26.1333 287.085 25.76 285.112 25.76C283.032 25.76 281.432 26.1333 280.312 26.88C279.245 27.5733 278.712 28.56 278.712 29.84C278.712 31.12 279.192 32.1067 280.152 32.8C281.112 33.4933 282.365 34.08 283.912 34.56C285.512 35.04 287.165 35.5467 288.872 36.08C290.579 36.56 292.205 37.2267 293.752 38.08C295.299 38.9333 296.552 40.08 297.512 41.52C298.525 42.96 299.032 44.8533 299.032 47.2C299.032 50.7733 297.752 53.6 295.192 55.68C292.685 57.76 289.299 58.8 285.032 58.8ZM337.973 58V35.84C337.973 32.96 337.066 30.5867 335.253 28.72C333.439 26.8533 331.093 25.92 328.213 25.92C326.293 25.92 324.586 26.3467 323.093 27.2C321.599 28.0533 320.426 29.2267 319.573 30.72C318.719 32.2133 318.293 33.92 318.293 35.84L315.333 34.16C315.333 31.28 315.973 28.72 317.253 26.48C318.533 24.24 320.319 22.48 322.613 21.2C324.906 19.8667 327.493 19.2 330.373 19.2C333.253 19.2 335.786 19.84 337.973 21.12C340.213 22.4 341.973 24.1867 343.253 26.48C344.533 28.7733 345.173 31.4133 345.173 34.4V58H337.973ZM311.092 58V0.879996H318.293V58H311.092ZM359.001 58V20H366.201V58H359.001ZM362.601 12.4C361.267 12.4 360.174 11.9733 359.321 11.12C358.467 10.2133 358.041 9.09333 358.041 7.76C358.041 6.48 358.467 5.41333 359.321 4.56C360.174 3.65333 361.267 3.2 362.601 3.2C363.934 3.2 365.027 3.65333 365.881 4.56C366.734 5.41333 367.161 6.48 367.161 7.76C367.161 9.09333 366.734 10.2133 365.881 11.12C365.027 11.9733 363.934 12.4 362.601 12.4ZM18.2747 159L0.114688 103.48H7.63469L22.0347 148.76H19.8747L34.0347 103.48H39.4747L53.6347 148.76H51.5547L65.9547 103.48H73.3947L55.3147 159H49.9547L35.7147 113.8H37.7947L23.6347 159H18.2747ZM95.6509 159.8C92.1843 159.8 89.0376 158.947 86.2109 157.24C83.3843 155.48 81.1443 153.107 79.4909 150.12C77.8909 147.133 77.0909 143.773 77.0909 140.04C77.0909 136.307 77.8909 132.947 79.4909 129.96C81.1443 126.973 83.3576 124.6 86.1309 122.84C88.9576 121.08 92.1309 120.2 95.6509 120.2C98.5309 120.2 101.091 120.813 103.331 122.04C105.624 123.213 107.464 124.867 108.851 127C110.238 129.08 111.011 131.507 111.171 134.28V145.72C111.011 148.44 110.238 150.867 108.851 153C107.518 155.133 105.704 156.813 103.411 158.04C101.171 159.213 98.5843 159.8 95.6509 159.8ZM96.8509 153C100.424 153 103.304 151.8 105.491 149.4C107.678 146.947 108.771 143.827 108.771 140.04C108.771 137.427 108.264 135.16 107.251 133.24C106.291 131.267 104.904 129.747 103.091 128.68C101.278 127.56 99.1709 127 96.7709 127C94.3709 127 92.2376 127.56 90.3709 128.68C88.5576 129.8 87.1176 131.347 86.0509 133.32C85.0376 135.24 84.5309 137.453 84.5309 139.96C84.5309 142.52 85.0376 144.787 86.0509 146.76C87.1176 148.68 88.5843 150.2 90.4509 151.32C92.3176 152.44 94.4509 153 96.8509 153ZM108.291 159V148.76L109.651 139.48L108.291 130.28V121H115.571V159H108.291ZM135.737 159V105.08H142.937V159H135.737ZM126.377 127.56V121H152.297V127.56H126.377ZM179.778 159.8C175.992 159.8 172.578 158.947 169.538 157.24C166.498 155.48 164.098 153.107 162.338 150.12C160.578 147.133 159.698 143.747 159.698 139.96C159.698 136.227 160.552 132.867 162.258 129.88C164.018 126.893 166.365 124.547 169.298 122.84C172.285 121.08 175.618 120.2 179.298 120.2C182.818 120.2 185.912 121 188.578 122.6C191.298 124.2 193.405 126.413 194.898 129.24C196.445 132.067 197.218 135.267 197.218 138.84C197.218 139.373 197.192 139.96 197.138 140.6C197.085 141.187 196.978 141.88 196.818 142.68H164.738V136.68H192.978L190.338 139C190.338 136.44 189.885 134.28 188.978 132.52C188.072 130.707 186.792 129.32 185.138 128.36C183.485 127.347 181.485 126.84 179.138 126.84C176.685 126.84 174.525 127.373 172.658 128.44C170.792 129.507 169.352 131 168.338 132.92C167.325 134.84 166.818 137.107 166.818 139.72C166.818 142.387 167.352 144.733 168.418 146.76C169.485 148.733 171.005 150.28 172.978 151.4C174.952 152.467 177.218 153 179.778 153C181.912 153 183.858 152.627 185.618 151.88C187.432 151.133 188.978 150.013 190.258 148.52L194.898 153.24C193.085 155.373 190.845 157 188.178 158.12C185.565 159.24 182.765 159.8 179.778 159.8ZM209.069 159V121H216.269V159H209.069ZM216.269 137.32L213.549 136.12C213.549 131.267 214.669 127.4 216.909 124.52C219.149 121.64 222.376 120.2 226.589 120.2C228.509 120.2 230.242 120.547 231.789 121.24C233.336 121.88 234.776 122.973 236.109 124.52L231.389 129.4C230.589 128.547 229.709 127.933 228.749 127.56C227.789 127.187 226.669 127 225.389 127C222.722 127 220.536 127.853 218.829 129.56C217.122 131.267 216.269 133.853 216.269 137.32ZM250.462 159V114.12C250.462 111.613 250.996 109.4 252.062 107.48C253.182 105.507 254.729 103.96 256.702 102.84C258.676 101.667 260.942 101.08 263.502 101.08C265.476 101.08 267.209 101.427 268.702 102.12C270.196 102.76 271.582 103.667 272.862 104.84L268.142 109.56C267.449 108.973 266.729 108.547 265.982 108.28C265.236 107.96 264.409 107.8 263.502 107.8C261.636 107.8 260.196 108.387 259.182 109.56C258.169 110.68 257.662 112.2 257.662 114.12V159H250.462ZM241.102 127.56V121H277.182V127.56H241.102ZM273.022 159V121H280.302V159H273.022ZM276.622 117C275.342 117 274.276 116.573 273.422 115.72C272.569 114.813 272.142 113.693 272.142 112.36C272.142 111.08 272.569 110.013 273.422 109.16C274.276 108.253 275.342 107.8 276.622 107.8C278.009 107.8 279.102 108.253 279.902 109.16C280.756 110.013 281.182 111.08 281.182 112.36C281.182 113.693 280.756 114.813 279.902 115.72C279.102 116.573 278.009 117 276.622 117ZM294.882 159V121H302.082V159H294.882ZM302.082 137.32L299.362 136.12C299.362 131.267 300.482 127.4 302.722 124.52C304.962 121.64 308.188 120.2 312.402 120.2C314.322 120.2 316.055 120.547 317.602 121.24C319.148 121.88 320.588 122.973 321.922 124.52L317.202 129.4C316.402 128.547 315.522 127.933 314.562 127.56C313.602 127.187 312.482 127 311.202 127C308.535 127 306.348 127.853 304.642 129.56C302.935 131.267 302.082 133.853 302.082 137.32ZM342.212 159.8C340.078 159.8 338.052 159.533 336.132 159C334.265 158.413 332.532 157.613 330.932 156.6C329.332 155.533 327.945 154.28 326.772 152.84L331.412 148.2C332.798 149.907 334.398 151.187 336.212 152.04C338.025 152.84 340.052 153.24 342.292 153.24C344.532 153.24 346.265 152.867 347.492 152.12C348.718 151.32 349.332 150.227 349.332 148.84C349.332 147.453 348.825 146.387 347.812 145.64C346.852 144.84 345.598 144.2 344.052 143.72C342.505 143.187 340.852 142.68 339.092 142.2C337.385 141.667 335.758 141 334.212 140.2C332.665 139.4 331.385 138.307 330.372 136.92C329.412 135.533 328.932 133.693 328.932 131.4C328.932 129.107 329.492 127.133 330.612 125.48C331.732 123.773 333.278 122.467 335.252 121.56C337.278 120.653 339.705 120.2 342.532 120.2C345.518 120.2 348.158 120.733 350.452 121.8C352.798 122.813 354.718 124.36 356.212 126.44L351.572 131.08C350.505 129.693 349.172 128.627 347.572 127.88C346.025 127.133 344.265 126.76 342.292 126.76C340.212 126.76 338.612 127.133 337.492 127.88C336.425 128.573 335.892 129.56 335.892 130.84C335.892 132.12 336.372 133.107 337.332 133.8C338.292 134.493 339.545 135.08 341.092 135.56C342.692 136.04 344.345 136.547 346.052 137.08C347.758 137.56 349.385 138.227 350.932 139.08C352.478 139.933 353.732 141.08 354.692 142.52C355.705 143.96 356.212 145.853 356.212 148.2C356.212 151.773 354.932 154.6 352.372 156.68C349.865 158.76 346.478 159.8 342.212 159.8ZM374.112 159V105.08H381.312V159H374.112ZM364.752 127.56V121H390.672V127.56H364.752Z" fill="white"/>
</svg>
